<svg xmlns="http://www.w3.org/2000/svg" width="18" height="18" viewBox="0 0 18 18" fill="none">
  <path d="M4.5 15C4.0875 15 3.73438 14.8657 3.44063 14.5971C3.14688 14.3286 3 14.0057 3 13.6286V7.45714C3 7.24 3.05313 7.03429 3.15938 6.84C3.26562 6.64571 3.4125 6.48571 3.6 6.36L8.1 3.27429C8.2375 3.18286 8.38125 3.11429 8.53125 3.06857C8.68125 3.02286 8.8375 3 9 3C9.1625 3 9.31875 3.02286 9.46875 3.06857C9.61875 3.11429 9.7625 3.18286 9.9 3.27429L14.4 6.36C14.5875 6.48571 14.7344 6.64571 14.8406 6.84C14.9469 7.03429 15 7.24 15 7.45714V13.6286C15 14.0057 14.8531 14.3286 14.5594 14.5971C14.2656 14.8657 13.9125 15 13.5 15H10.5V10.2H7.5V15H4.5Z" fill="#BCBCC1"/>
</svg>