<svg width="20" height="20" viewBox="0 0 20 20" fill="none" xmlns="http://www.w3.org/2000/svg">
<g id="fi-rr-angle-small-down">
<path id="Vector" d="M6.84171 4.40857C6.76361 4.48604 6.70161 4.5782 6.6593 4.67975C6.617 4.7813 6.59521 4.89022 6.59521 5.00023C6.59521 5.11024 6.617 5.21916 6.6593 5.32071C6.70161 5.42226 6.76361 5.51443 6.84171 5.5919L10.6584 9.40857C10.7365 9.48604 10.7985 9.5782 10.8408 9.67975C10.8831 9.7813 10.9049 9.89022 10.9049 10.0002C10.9049 10.1102 10.8831 10.2192 10.8408 10.3207C10.7985 10.4223 10.7365 10.5144 10.6584 10.5919L6.84171 14.4086C6.76361 14.486 6.70161 14.5782 6.6593 14.6798C6.617 14.7813 6.59521 14.8902 6.59521 15.0002C6.59521 15.1102 6.617 15.2192 6.6593 15.3207C6.70161 15.4223 6.76361 15.5144 6.84171 15.5919C6.99785 15.7471 7.20906 15.8342 7.42921 15.8342C7.64937 15.8342 7.86058 15.7471 8.01671 15.5919L11.8417 11.7669C12.3099 11.2981 12.5728 10.6627 12.5728 10.0002C12.5728 9.33773 12.3099 8.70232 11.8417 8.23357L8.01671 4.40857C7.86058 4.25336 7.64937 4.16624 7.42921 4.16624C7.20906 4.16624 6.99785 4.25336 6.84171 4.40857Z" fill="#747685"/>
</g>
</svg>
