<svg width="24" height="24" viewBox="0 0 24 24" fill="none" xmlns="http://www.w3.org/2000/svg">
<path d="M9.94072 12.9133C9.82022 12.7938 9.72458 12.6516 9.65931 12.4949C9.59404 12.3383 9.56043 12.1702 9.56043 12.0005C9.56043 11.8308 9.59404 11.6627 9.65931 11.5061C9.72458 11.3494 9.82022 11.2072 9.94072 11.0877L15.8418 5.19946C15.9623 5.07995 16.058 4.93775 16.1232 4.78109C16.1885 4.62442 16.2221 4.45638 16.2221 4.28666C16.2221 4.11694 16.1885 3.9489 16.1232 3.79223C16.058 3.63556 15.9623 3.49337 15.8418 3.37385C15.6009 3.1344 15.2751 3 14.9354 3C14.5958 3 14.2699 3.1344 14.0291 3.37385L8.12797 9.27494C7.40569 9.99812 7 10.9784 7 12.0005C7 13.0226 7.40569 14.0029 8.12797 14.7261L14.0291 20.6271C14.2685 20.8647 14.5917 20.9986 14.929 21C15.0982 21.001 15.2659 20.9685 15.4226 20.9045C15.5792 20.8406 15.7217 20.7463 15.8418 20.6271C15.9623 20.5076 16.058 20.3654 16.1232 20.2088C16.1885 20.0521 16.2221 19.8841 16.2221 19.7143C16.2221 19.5446 16.1885 19.3766 16.1232 19.2199C16.058 19.0632 15.9623 18.9211 15.8418 18.8015L9.94072 12.9133Z" fill="#514F61"/>
</svg>
