<svg width="36" height="36" viewBox="0 0 36 36" fill="currentColor" xmlns="http://www.w3.org/2000/svg">
<g id="bookmark">
<path id="Star 1" d="M17.1359 5.98359C17.5216 5.32132 18.4784 5.32132 18.8641 5.98359L22.1425 11.6123C22.2838 11.8549 22.5206 12.0269 22.795 12.0863L29.1613 13.4649C29.9103 13.6271 30.206 14.537 29.6953 15.1085L25.3552 19.9658C25.1681 20.1752 25.0777 20.4536 25.106 20.7329L25.7622 27.2136C25.8394 27.9761 25.0653 28.5384 24.364 28.2294L18.4032 25.6027C18.1463 25.4895 17.8537 25.4895 17.5968 25.6027L11.636 28.2294C10.9347 28.5384 10.1606 27.9761 10.2378 27.2136L10.894 20.7329C10.9223 20.4536 10.8319 20.1752 10.6448 19.9658L6.30469 15.1085C5.79403 14.537 6.08969 13.6271 6.83874 13.4649L13.205 12.0863C13.4794 12.0269 13.7162 11.8549 13.8575 11.6123L17.1359 5.98359Z" fill="current"/>
</g>
</svg>
