<svg width="24" height="24" viewBox="0 0 24 24" fill="none" xmlns="http://www.w3.org/2000/svg">
<path d="M11.1359 4.48359C11.5216 3.82132 12.4784 3.82132 12.8641 4.48359L14.6878 7.61458C14.8291 7.85718 15.0658 8.02921 15.3402 8.08863L18.8815 8.85548C19.6306 9.01769 19.9262 9.92761 19.4156 10.4991L17.0013 13.201C16.8143 13.4104 16.7238 13.6887 16.7521 13.9681L17.1171 17.573C17.1943 18.3355 16.4203 18.8979 15.719 18.5888L12.4032 17.1277C12.1463 17.0145 11.8537 17.0145 11.5968 17.1277L8.28104 18.5888C7.57971 18.8979 6.80568 18.3355 6.88288 17.573L7.24788 13.9681C7.27616 13.6887 7.18572 13.4104 6.99866 13.201L4.58444 10.4991C4.07379 9.92761 4.36944 9.01769 5.11849 8.85548L8.65978 8.08863C8.93417 8.02921 9.17095 7.85718 9.31225 7.61458L11.1359 4.48359Z" fill="#DCDCDF"/>
</svg>
