<svg width="21" height="20" viewBox="0 0 21 20" fill="none" xmlns="http://www.w3.org/2000/svg">
<g id="Icon">
<path id=" Vector" d="M4.66667 18.3334C4.20833 18.3334 3.81597 18.1702 3.48958 17.8438C3.16319 17.5174 3 17.1251 3 16.6667V5.00008C3 4.54175 3.16319 4.14939 3.48958 3.823C3.81597 3.49661 4.20833 3.33341 4.66667 3.33341H5.5V2.50008C5.5 2.26397 5.57986 2.06605 5.73958 1.90633C5.89931 1.74661 6.09722 1.66675 6.33333 1.66675C6.56944 1.66675 6.76736 1.74661 6.92708 1.90633C7.08681 2.06605 7.16667 2.26397 7.16667 2.50008V3.33341H13.8333V2.50008C13.8333 2.26397 13.9132 2.06605 14.0729 1.90633C14.2326 1.74661 14.4306 1.66675 14.6667 1.66675C14.9028 1.66675 15.1007 1.74661 15.2604 1.90633C15.4201 2.06605 15.5 2.26397 15.5 2.50008V3.33341H16.3333C16.7917 3.33341 17.184 3.49661 17.5104 3.823C17.8368 4.14939 18 4.54175 18 5.00008V16.6667C18 17.1251 17.8368 17.5174 17.5104 17.8438C17.184 18.1702 16.7917 18.3334 16.3333 18.3334H4.66667ZM4.66667 16.6667H16.3333V8.33342H4.66667V16.6667Z" fill="#514F61"/>
</g>
</svg>
