<svg width="29" height="31" viewBox="0 0 29 31" fill="none" xmlns="http://www.w3.org/2000/svg">
<g id="&#225;&#132;&#131;&#225;&#133;&#161;&#225;&#134;&#175;&#225;&#132;&#133;&#225;&#133;&#167;&#225;&#134;&#168;" clip-path="url(#clip0_658_5673)">
<path id="Vector" d="M1 3H28V8H1V3Z" fill="#A2C2F9"/>
<path id="Vector_2" d="M1 3V2C0.447715 2 0 2.44772 0 3H1ZM28 3H29C29 2.44772 28.5523 2 28 2V3ZM28 8V9H29V8H28ZM1 8H0V9H1V8ZM1 4H28V2H1V4ZM27 3V8H29V3H27ZM28 7H1V9H28V7ZM2 8V3H0V8H2Z" fill="#A2C2F9"/>
<path id="Vector_3" d="M1 11H28V28C28 29.1046 27.1046 30 26 30H3C1.89543 30 1 29.1046 1 28V11Z" fill="#1767F0" stroke="#1666EF" stroke-width="2" stroke-linecap="round"/>
<path id="Vector_4" d="M21 1V5" stroke="#1767F0" stroke-width="2" stroke-linecap="round" stroke-linejoin="round"/>
<path id="Vector_5" d="M8 1V5" stroke="#1767F0" stroke-width="2" stroke-linecap="round" stroke-linejoin="round"/>
</g>
<defs>
<clipPath id="clip0_658_5673">
<rect width="29" height="31" fill="white"/>
</clipPath>
</defs>
</svg>
