<svg xmlns="http://www.w3.org/2000/svg" width="24" height="24" viewBox="0 0 24 24" fill="none">
  <g clip-path="url(#clip0_286_11764)">
    <path d="M18.3639 18.364C18.1063 18.6215 17.8032 18.7503 17.4547 18.7503C17.1062 18.7503 16.8032 18.6215 16.5456 18.364L11.9999 13.8183L7.45421 18.364C7.19662 18.6215 6.89357 18.7503 6.54507 18.7503C6.19657 18.7503 5.89352 18.6215 5.63593 18.364C5.37834 18.1064 5.24955 17.8033 5.24955 17.4548C5.24955 17.1063 5.37834 16.8033 5.63593 16.5457L10.1816 12L5.63593 7.45431C5.37834 7.19672 5.24955 6.89368 5.24955 6.54518C5.24955 6.19667 5.37834 5.89363 5.63593 5.63604C5.89352 5.37845 6.19657 5.24966 6.54507 5.24966C6.89357 5.24966 7.19662 5.37845 7.45421 5.63604L11.9999 10.1817L16.5456 5.63604C16.8032 5.37845 17.1062 5.24966 17.4547 5.24965C17.8032 5.24966 18.1063 5.37845 18.3639 5.63604C18.6214 5.89363 18.7502 6.19667 18.7502 6.54518C18.7502 6.89368 18.6214 7.19672 18.3639 7.45431L13.8182 12L18.3639 16.5457C18.6214 16.8033 18.7502 17.1063 18.7502 17.4548C18.7502 17.8033 18.6214 18.1064 18.3639 18.364Z" fill="#747685"/>
  </g>
  <defs>
    <clipPath id="clip0_286_11764">
      <rect width="24" height="24" fill="white"/>
    </clipPath>
  </defs>
</svg>