<svg xmlns="http://www.w3.org/2000/svg" width="18" height="18" viewBox="0 0 18 18" fill="none">
  <path d="M14.3 15C12.8667 15 11.4694 14.6806 10.1083 14.0417C8.74722 13.4028 7.54167 12.5583 6.49167 11.5083C5.44167 10.4583 4.59722 9.25278 3.95833 7.89167C3.31944 6.53056 3 5.13333 3 3.7C3 3.5 3.06667 3.33333 3.2 3.2C3.33333 3.06667 3.5 3 3.7 3H6.4C6.55556 3 6.69444 3.05 6.81667 3.15C6.93889 3.25 7.01111 3.37778 7.03333 3.53333L7.46667 5.86667C7.48889 6.02222 7.48611 6.16389 7.45833 6.29167C7.43056 6.41944 7.36667 6.53333 7.26667 6.63333L5.66667 8.26667C6.13333 9.06667 6.71667 9.81667 7.41667 10.5167C8.11667 11.2167 8.88889 11.8222 9.73333 12.3333L11.3 10.7667C11.4 10.6667 11.5306 10.5917 11.6917 10.5417C11.8528 10.4917 12.0111 10.4778 12.1667 10.5L14.4667 10.9667C14.6222 11 14.75 11.075 14.85 11.1917C14.95 11.3083 15 11.4444 15 11.6V14.3C15 14.5 14.9333 14.6667 14.8 14.8C14.6667 14.9333 14.5 15 14.3 15Z" fill="#BCBCC1"/>
</svg>