<svg xmlns="http://www.w3.org/2000/svg" width="17" height="17" viewBox="0 0 17 17" fill="none">
  <path fill-rule="evenodd" clip-rule="evenodd" d="M15.5821 9.20743C15.9726 8.81691 15.9726 8.18374 15.5821 7.79322L12.0404 4.25155C11.6499 3.86103 11.0168 3.86103 10.6262 4.25155C10.2357 4.64208 10.2357 5.27524 10.6262 5.66577L12.4608 7.50033L7.08333 7.50033L7.08333 2.12533C7.08333 1.73412 6.7662 1.41699 6.375 1.41699L3.54167 1.41699C2.97808 1.41699 2.43758 1.64087 2.03907 2.03939C1.64055 2.4379 1.41667 2.97841 1.41667 3.54199L1.41667 13.4587C1.41667 14.0222 1.64055 14.5627 2.03906 14.9613C2.43758 15.3598 2.97808 15.5837 3.54167 15.5837L6.375 15.5837C6.7662 15.5837 7.08333 15.2665 7.08333 14.8753L7.08333 9.50033L12.4608 9.50033L10.6262 11.3349C10.2357 11.7254 10.2357 12.3586 10.6262 12.7491C11.0168 13.1396 11.6499 13.1396 12.0404 12.7491L15.5821 9.20743Z" fill="#BCBCC1"/>
</svg>