<svg xmlns="http://www.w3.org/2000/svg" width="24" height="24" viewBox="0 0 24 24" fill="none">
  <path fill-rule="evenodd" clip-rule="evenodd" d="M19.5821 12.2074C19.9726 11.8169 19.9726 11.1837 19.5821 10.7932L16.0404 7.25155C15.6499 6.86103 15.0168 6.86103 14.6262 7.25155C14.2357 7.64208 14.2357 8.27524 14.6262 8.66577L16.4608 10.5003L11.0833 10.5003L11.0833 5.12533C11.0833 4.73412 10.7662 4.41699 10.375 4.41699L7.54167 4.41699C6.97808 4.41699 6.43758 4.64087 6.03907 5.03939C5.64055 5.4379 5.41667 5.97841 5.41667 6.54199L5.41667 16.4587C5.41667 17.0222 5.64055 17.5627 6.03906 17.9613C6.43758 18.3598 6.97808 18.5837 7.54167 18.5837L10.375 18.5837C10.7662 18.5837 11.0833 18.2665 11.0833 17.8753L11.0833 12.5003L16.4608 12.5003L14.6262 14.3349C14.2357 14.7254 14.2357 15.3586 14.6262 15.7491C15.0168 16.1396 15.6499 16.1396 16.0404 15.7491L19.5821 12.2074Z" fill="#DCDCDF"/>
</svg>