<svg width="24" height="24" viewBox="0 0 24 24" fill="none" xmlns="http://www.w3.org/2000/svg">
<g id="Icon">
<path id="savings" d="M15.3158 11.6316C15.5246 11.6316 15.6996 11.561 15.8408 11.4197C15.982 11.2785 16.0526 11.1035 16.0526 10.8947C16.0526 10.686 15.982 10.511 15.8408 10.3697C15.6996 10.2285 15.5246 10.1579 15.3158 10.1579C15.107 10.1579 14.932 10.2285 14.7908 10.3697C14.6496 10.511 14.5789 10.686 14.5789 10.8947C14.5789 11.1035 14.6496 11.2785 14.7908 11.4197C14.932 11.561 15.107 11.6316 15.3158 11.6316ZM7.89211 19C7.60965 19 7.3364 18.9018 7.07237 18.7053C6.80833 18.5088 6.63333 18.2693 6.54737 17.9868C6.24035 16.9553 5.9886 16.0618 5.79211 15.3066C5.59561 14.5513 5.43904 13.8882 5.32237 13.3171C5.2057 12.7461 5.12281 12.2395 5.07368 11.7974C5.02456 11.3553 5 10.9316 5 10.5263C5 9.39649 5.39298 8.4386 6.17895 7.65263C6.96491 6.86667 7.92281 6.47368 9.05263 6.47368H12.7368C13.0684 6.03158 13.489 5.67544 13.9987 5.40526C14.5083 5.13509 15.0702 5 15.6842 5C15.9912 5 16.2522 5.10746 16.4671 5.32237C16.682 5.53728 16.7895 5.79825 16.7895 6.10526C16.7895 6.17895 16.7803 6.25263 16.7618 6.32632C16.7434 6.4 16.7219 6.46754 16.6974 6.52895C16.6482 6.66404 16.6022 6.79912 16.5592 6.93421C16.5162 7.0693 16.4825 7.21667 16.4579 7.37632L18.1342 9.05263H19C19.2088 9.05263 19.3838 9.12325 19.525 9.26447C19.6662 9.4057 19.7368 9.5807 19.7368 9.78947V13.6579C19.7368 13.8175 19.6908 13.9588 19.5987 14.0816C19.5066 14.2044 19.3807 14.2965 19.2211 14.3579L17.6553 14.8737L16.7342 17.95C16.636 18.2693 16.4579 18.5241 16.2 18.7145C15.9421 18.9048 15.6474 19 15.3158 19H13.8421C13.4368 19 13.0899 18.8557 12.8013 18.5671C12.5127 18.2785 12.3684 17.9316 12.3684 17.5263H10.8947C10.8947 17.9316 10.7504 18.2785 10.4618 18.5671C10.1732 18.8557 9.82632 19 9.42105 19H7.89211Z" fill="#FF5018"/>
</g>
</svg>
