<svg width="40" height="52" viewBox="0 0 40 52" fill="none" xmlns="http://www.w3.org/2000/svg">
<ellipse cx="19.5556" cy="47.6667" rx="8.55556" ry="3.66667" fill="black" fill-opacity="0.18"/>
<path d="M19.5669 47.5C19.3047 47.5 19.0379 47.4511 18.7641 47.3484L18.5885 47.8166L18.7641 47.3484C18.4881 47.2449 18.2544 47.1104 18.0579 46.9477C12.1284 41.708 7.72233 36.8619 4.82147 32.4098C1.92021 27.9572 0.5 23.8426 0.5 20.0561C0.5 14.0591 2.42358 9.32905 6.23962 5.80959C10.0845 2.26356 14.52 0.5 19.5669 0.5C24.6137 0.5 29.0493 2.26356 32.8941 5.80959C36.7102 9.32905 38.6338 14.0591 38.6338 20.0561C38.6338 23.8426 37.2136 27.9572 34.3123 32.4098C31.4114 36.8619 27.0053 41.708 21.0759 46.9477C20.8794 47.1104 20.6457 47.2449 20.3697 47.3484L20.5452 47.8166L20.3697 47.3484C20.0958 47.4511 19.8291 47.5 19.5669 47.5Z" fill="#FF441B" stroke="#E1320B"/>
<path d="M24.4211 19.5088C24.6995 19.5088 24.9328 19.4146 25.1211 19.2263C25.3094 19.038 25.4036 18.8047 25.4036 18.5263C25.4036 18.248 25.3094 18.0146 25.1211 17.8263C24.9328 17.638 24.6995 17.5439 24.4211 17.5439C24.1428 17.5439 23.9094 17.638 23.7211 17.8263C23.5328 18.0146 23.4387 18.248 23.4387 18.5263C23.4387 18.8047 23.5328 19.038 23.7211 19.2263C23.9094 19.4146 24.1428 19.5088 24.4211 19.5088ZM14.5229 29.3334C14.1463 29.3334 13.782 29.2024 13.4299 28.9404C13.0779 28.6784 12.8445 28.3591 12.7299 27.9825C12.3205 26.607 11.9849 25.4158 11.7229 24.4088C11.4609 23.4018 11.2521 22.5176 11.0966 21.7562C10.941 20.9948 10.8305 20.3193 10.765 19.7298C10.6995 19.1404 10.6667 18.5755 10.6667 18.0351C10.6667 16.5287 11.1907 15.2515 12.2387 14.2035C13.2866 13.1556 14.5638 12.6316 16.0703 12.6316H20.9825C21.4246 12.0421 21.9855 11.5673 22.665 11.207C23.3445 10.8468 24.0936 10.6667 24.9124 10.6667C25.3217 10.6667 25.6697 10.81 25.9562 11.0965C26.2428 11.3831 26.386 11.731 26.386 12.1404C26.386 12.2386 26.3738 12.3369 26.3492 12.4351C26.3246 12.5334 26.296 12.6234 26.2632 12.7053C26.1977 12.8854 26.1363 13.0655 26.079 13.2456C26.0217 13.4258 25.9767 13.6222 25.9439 13.8351L28.179 16.0702H29.3334C29.6118 16.0702 29.8451 16.1643 30.0334 16.3527C30.2217 16.541 30.3159 16.7743 30.3159 17.0527V22.2105C30.3159 22.4234 30.2545 22.6117 30.1317 22.7755C30.0089 22.9392 29.841 23.062 29.6282 23.1439L27.5404 23.8316L26.3124 27.9334C26.1814 28.3591 25.9439 28.6989 25.6001 28.9527C25.2562 29.2065 24.8632 29.3334 24.4211 29.3334H22.4562C21.9159 29.3334 21.4533 29.141 21.0685 28.7562C20.6837 28.3714 20.4913 27.9088 20.4913 27.3684H18.5264C18.5264 27.9088 18.334 28.3714 17.9492 28.7562C17.5644 29.141 17.1018 29.3334 16.5615 29.3334H14.5229Z" fill="white"/>
</svg>
