<svg width="24" height="24" viewBox="0 0 24 24" fill="none" xmlns="http://www.w3.org/2000/svg">
<path d="M10.5464 13.4536L4.57627 11.0333C4.37649 10.9565 4.23051 10.8374 4.1383 10.676C4.0461 10.5147 4 10.3495 4 10.1804C4 10.0114 4.04994 9.84621 4.14983 9.68485C4.24971 9.5235 4.39954 9.40441 4.59932 9.32757L18.7524 4.07203C18.9368 3.9952 19.1135 3.97983 19.2826 4.02593C19.4516 4.07203 19.5976 4.15655 19.7205 4.27949C19.8434 4.40243 19.928 4.54841 19.9741 4.71745C20.0202 4.88649 20.0048 5.06321 19.928 5.24761L14.6724 19.4007C14.5956 19.6005 14.4765 19.7503 14.3151 19.8502C14.1538 19.9501 13.9886 20 13.8196 20C13.6505 20 13.4853 19.9539 13.324 19.8617C13.1626 19.7695 13.0435 19.6235 12.9667 19.4237L10.5464 13.4536Z" fill="white"/>
</svg>
