<svg width="20" height="20" viewBox="0 0 20 20" fill="none" xmlns="http://www.w3.org/2000/svg">
<g id="Icon">
<path id="add" d="M10 17.5C9.69643 17.5 9.44196 17.3973 9.23661 17.192C9.03125 16.9866 8.92857 16.7321 8.92857 16.4286V11.0714H3.57143C3.26786 11.0714 3.01339 10.9688 2.80804 10.7634C2.60268 10.558 2.5 10.3036 2.5 10C2.5 9.69643 2.60268 9.44196 2.80804 9.23661C3.01339 9.03125 3.26786 8.92857 3.57143 8.92857H8.92857V3.57143C8.92857 3.26786 9.03125 3.01339 9.23661 2.80804C9.44196 2.60268 9.69643 2.5 10 2.5C10.3036 2.5 10.558 2.60268 10.7634 2.80804C10.9688 3.01339 11.0714 3.26786 11.0714 3.57143V8.92857H16.4286C16.7321 8.92857 16.9866 9.03125 17.192 9.23661C17.3973 9.44196 17.5 9.69643 17.5 10C17.5 10.3036 17.3973 10.558 17.192 10.7634C16.9866 10.9688 16.7321 11.0714 16.4286 11.0714H11.0714V16.4286C11.0714 16.7321 10.9688 16.9866 10.7634 17.192C10.558 17.3973 10.3036 17.5 10 17.5Z" fill="#514F61"/>
</g>
</svg>
