<svg width="24" height="24" viewBox="0 0 24 24" fill="currentColor" xmlns="http://www.w3.org/2000/svg">
<g id="Icon">
<path id="Union" fill-rule="evenodd" clip-rule="evenodd" d="M11.3493 21.7374C11.5244 21.9125 11.7412 22 12 22C12.2588 22 12.4756 21.9125 12.6507 21.7374C12.8257 21.5624 12.9132 21.3455 12.9132 21.0868V20.1735C14.8158 19.9604 16.4482 19.1728 17.8105 17.8105C19.1728 16.4482 19.9604 14.8158 20.1735 12.9132H21.0868C21.3455 12.9132 21.5624 12.8257 21.7374 12.6507C21.9125 12.4756 22 12.2588 22 12C22 11.7412 21.9125 11.5244 21.7374 11.3493C21.5624 11.1743 21.3455 11.0868 21.0868 11.0868H20.1735C19.9604 9.18417 19.1728 7.55175 17.8105 6.1895C16.4482 4.82725 14.8158 4.03957 12.9132 3.82648V2.91324C12.9132 2.65449 12.8257 2.4376 12.6507 2.26256C12.4756 2.08752 12.2588 2 12 2C11.7412 2 11.5244 2.08752 11.3493 2.26256C11.1743 2.4376 11.0868 2.65449 11.0868 2.91324V3.82648C9.18417 4.03957 7.55175 4.82725 6.1895 6.1895C4.82725 7.55175 4.03957 9.18417 3.82648 11.0868H2.91324C2.65449 11.0868 2.4376 11.1743 2.26256 11.3493C2.08752 11.5244 2 11.7412 2 12C2 12.2588 2.08752 12.4756 2.26256 12.6507C2.4376 12.8257 2.65449 12.9132 2.91324 12.9132H3.82648C4.03957 14.8158 4.82725 16.4482 6.1895 17.8105C7.55175 19.1728 9.18417 19.9604 11.0868 20.1735V21.0868C11.0868 21.3455 11.1743 21.5624 11.3493 21.7374ZM16.5205 16.5205C15.2725 17.7686 13.7656 18.3927 12 18.3927C10.2344 18.3927 8.72755 17.7686 7.47945 16.5205C6.23135 15.2725 5.60731 13.7656 5.60731 12C5.60731 10.2344 6.23135 8.72755 7.47945 7.47945C8.72755 6.23135 10.2344 5.60731 12 5.60731C13.7656 5.60731 15.2725 6.23135 16.5205 7.47945C17.7686 8.72755 18.3927 10.2344 18.3927 12C18.3927 13.7656 17.7686 15.2725 16.5205 16.5205ZM12 16C14.2091 16 16 14.2091 16 12C16 9.79086 14.2091 8 12 8C9.79086 8 8 9.79086 8 12C8 14.2091 9.79086 16 12 16Z" fill="current"/>
</g>
</svg>
