<svg width="24" height="24" viewBox="0 0 24 24" fill="none" xmlns="http://www.w3.org/2000/svg">
<g id="Icon">
<path id="cached" d="M12.0498 20C9.81647 20 7.91647 19.225 6.3498 17.675C4.78314 16.125 3.9998 14.2333 3.9998 12V11.825L3.0998 12.725C2.91647 12.9083 2.68314 13 2.3998 13C2.11647 13 1.88314 12.9083 1.6998 12.725C1.51647 12.5417 1.4248 12.3083 1.4248 12.025C1.4248 11.7417 1.51647 11.5083 1.6998 11.325L4.2998 8.725C4.4998 8.525 4.73314 8.425 4.9998 8.425C5.26647 8.425 5.4998 8.525 5.6998 8.725L8.2998 11.325C8.48314 11.5083 8.5748 11.7417 8.5748 12.025C8.5748 12.3083 8.48314 12.5417 8.2998 12.725C8.11647 12.9083 7.88314 13 7.5998 13C7.31647 13 7.08314 12.9083 6.8998 12.725L5.9998 11.825V12C5.9998 13.6667 6.5873 15.0833 7.7623 16.25C8.9373 17.4167 10.3665 18 12.0498 18C12.3165 18 12.579 17.9833 12.8373 17.95C13.0956 17.9167 13.3498 17.8583 13.5998 17.775C13.8831 17.6917 14.1498 17.7 14.3998 17.8C14.6498 17.9 14.8415 18.075 14.9748 18.325C15.1081 18.5917 15.1206 18.8542 15.0123 19.1125C14.904 19.3708 14.7081 19.5417 14.4248 19.625C14.0415 19.7583 13.6498 19.8542 13.2498 19.9125C12.8498 19.9708 12.4498 20 12.0498 20ZM11.9498 6C11.6831 6 11.4206 6.01667 11.1623 6.05C10.904 6.08333 10.6498 6.14167 10.3998 6.225C10.1165 6.30833 9.84564 6.3 9.58731 6.2C9.32897 6.1 9.13314 5.925 8.9998 5.675C8.86647 5.425 8.85397 5.17083 8.9623 4.9125C9.07064 4.65417 9.25814 4.48333 9.52481 4.4C9.9248 4.26667 10.3248 4.16667 10.7248 4.1C11.1248 4.03333 11.5331 4 11.9498 4C14.1831 4 16.0831 4.775 17.6498 6.325C19.2165 7.875 19.9998 9.76667 19.9998 12V12.175L20.8998 11.275C21.0831 11.0917 21.3165 11 21.5998 11C21.8831 11 22.1165 11.0917 22.2998 11.275C22.4831 11.4583 22.5748 11.6917 22.5748 11.975C22.5748 12.2583 22.4831 12.4917 22.2998 12.675L19.6998 15.275C19.4998 15.475 19.2665 15.575 18.9998 15.575C18.7331 15.575 18.4998 15.475 18.2998 15.275L15.6998 12.675C15.5165 12.4917 15.4248 12.2583 15.4248 11.975C15.4248 11.6917 15.5165 11.4583 15.6998 11.275C15.8831 11.0917 16.1165 11 16.3998 11C16.6831 11 16.9165 11.0917 17.0998 11.275L17.9998 12.175V12C17.9998 10.3333 17.4123 8.91667 16.2373 7.75C15.0623 6.58333 13.6331 6 11.9498 6Z" fill="#514F61"/>
</g>
</svg>
