<svg xmlns="http://www.w3.org/2000/svg" width="24" height="24" viewBox="0 0 24 24" fill="none">
  <path d="M13.4001 11.2902C13.4939 11.3831 13.5683 11.4937 13.619 11.6156C13.6698 11.7375 13.6959 11.8682 13.6959 12.0002C13.6959 12.1322 13.6698 12.2629 13.619 12.3848C13.5683 12.5066 13.4939 12.6172 13.4001 12.7102L8.81014 17.2902C8.71641 17.3831 8.64202 17.4937 8.59125 17.6156C8.54048 17.7375 8.51434 17.8682 8.51434 18.0002C8.51434 18.1322 8.54048 18.2629 8.59125 18.3848C8.64202 18.5066 8.71641 18.6172 8.81014 18.7102C8.9975 18.8964 9.25095 19.001 9.51514 19.001C9.77933 19.001 10.0328 18.8964 10.2201 18.7102L14.8101 14.1202C15.3719 13.5577 15.6875 12.7952 15.6875 12.0002C15.6875 11.2052 15.3719 10.4427 14.8101 9.88018L10.2201 5.29018C10.0339 5.10544 9.78248 5.00129 9.52014 5.00018C9.38853 4.99942 9.25807 5.02465 9.13623 5.07441C9.0144 5.12417 8.90358 5.1975 8.81014 5.29018C8.71641 5.38315 8.64202 5.49375 8.59125 5.6156C8.54048 5.73746 8.51434 5.86817 8.51434 6.00018C8.51434 6.13219 8.54048 6.2629 8.59125 6.38476C8.64202 6.50662 8.71641 6.61722 8.81014 6.71018L13.4001 11.2902Z" fill="#222222"/>
</svg>