<svg xmlns="http://www.w3.org/2000/svg" width="16" height="16" viewBox="0 0 16 16" fill="none">
  <path d="M7.13589 1.48359C7.52162 0.82132 8.47838 0.821321 8.86411 1.48359L10.6878 4.61458C10.8291 4.85718 11.0658 5.02921 11.3402 5.08863L14.8815 5.85548C15.6306 6.01769 15.9262 6.92761 15.4156 7.49912L13.0013 10.201C12.8143 10.4104 12.7238 10.6887 12.7521 10.9681L13.1171 14.573C13.1943 15.3355 12.4203 15.8979 11.719 15.5888L8.40325 14.1277C8.14634 14.0145 7.85366 14.0145 7.59675 14.1277L4.28104 15.5888C3.57971 15.8979 2.80568 15.3355 2.88288 14.573L3.24788 10.9681C3.27616 10.6887 3.18572 10.4104 2.99866 10.201L0.584442 7.49912C0.0737871 6.92761 0.369441 6.01769 1.11849 5.85548L4.65978 5.08863C4.93417 5.02921 5.17095 4.85718 5.31225 4.61458L7.13589 1.48359Z" fill="#BCBCC1"/>
</svg>