<svg width="24" height="24" viewBox="0 0 24 24" fill="none" xmlns="http://www.w3.org/2000/svg">
<g id="Icon">
<path id="store" d="M5.89646 6.63488C5.64941 6.63488 5.44233 6.55654 5.2752 6.39986C5.10808 6.24319 5.02452 6.04905 5.02452 5.81744C5.02452 5.58583 5.10808 5.39169 5.2752 5.23501C5.44233 5.07834 5.64941 5 5.89646 5H18.1035C18.3506 5 18.5577 5.07834 18.7248 5.23501C18.8919 5.39169 18.9755 5.58583 18.9755 5.81744C18.9755 6.04905 18.8919 6.24319 18.7248 6.39986C18.5577 6.55654 18.3506 6.63488 18.1035 6.63488H5.89646ZM5.89646 18.079C5.64941 18.079 5.44233 18.0007 5.2752 17.844C5.10808 17.6873 5.02452 17.4932 5.02452 17.2616V13.1744H4.87193C4.59582 13.1744 4.37057 13.0756 4.19619 12.8781C4.0218 12.6805 3.96367 12.4523 4.0218 12.1935L4.89373 8.10627C4.93733 7.91553 5.03906 7.75886 5.19891 7.63624C5.35876 7.51362 5.54042 7.45232 5.74387 7.45232H18.2561C18.4596 7.45232 18.6412 7.51362 18.8011 7.63624C18.9609 7.75886 19.0627 7.91553 19.1063 8.10627L19.9782 12.1935C20.0363 12.4523 19.9782 12.6805 19.8038 12.8781C19.6294 13.0756 19.4042 13.1744 19.1281 13.1744H18.9755V17.2616C18.9755 17.4932 18.8919 17.6873 18.7248 17.844C18.5577 18.0007 18.3506 18.079 18.1035 18.079C17.8565 18.079 17.6494 18.0007 17.4823 17.844C17.3152 17.6873 17.2316 17.4932 17.2316 17.2616V13.1744H13.7439V17.2616C13.7439 17.4932 13.6603 17.6873 13.4932 17.844C13.3261 18.0007 13.119 18.079 12.8719 18.079H5.89646ZM6.76839 16.4441H12V13.1744H6.76839V16.4441Z" fill="#0E5EE6"/>
</g>
</svg>
