<svg width="52" height="60" viewBox="0 0 52 60" fill="none" xmlns="http://www.w3.org/2000/svg">
<ellipse cx="25.5556" cy="53.6667" rx="8.55556" ry="3.66667" fill="black" fill-opacity="0.18"/>
<g filter="url(#filter0_dd_183_16296)">
<path d="M25.5669 54C25.2408 54 24.9147 53.9389 24.5885 53.8166C24.2624 53.6943 23.9771 53.5312 23.7325 53.3274C17.7809 48.0688 13.3376 43.1873 10.4025 38.6828C7.46752 34.1783 6 29.9694 6 26.0561C6 19.9414 7.96688 15.0701 11.9006 11.442C15.8344 7.81401 20.3898 6 25.5669 6C30.744 6 35.2994 7.81401 39.2331 11.442C43.1669 15.0701 45.1338 19.9414 45.1338 26.0561C45.1338 29.9694 43.6662 34.1783 40.7312 38.6828C37.7962 43.1873 33.3529 48.0688 27.4013 53.3274C27.1567 53.5312 26.8713 53.6943 26.5452 53.8166C26.2191 53.9389 25.893 54 25.5669 54Z" fill="#2351F7"/>
<path d="M25.5669 53.5C25.3047 53.5 25.0379 53.4511 24.7641 53.3484L24.5885 53.8166L24.7641 53.3484C24.4881 53.2449 24.2544 53.1104 24.0579 52.9477C18.1284 47.708 13.7223 42.8619 10.8215 38.4098C7.92021 33.9572 6.5 29.8426 6.5 26.0561C6.5 20.0591 8.42358 15.329 12.2396 11.8096C16.0845 8.26356 20.52 6.5 25.5669 6.5C30.6137 6.5 35.0493 8.26356 38.8941 11.8096C42.7102 15.329 44.6338 20.0591 44.6338 26.0561C44.6338 29.8426 43.2136 33.9572 40.3123 38.4098C37.4114 42.8619 33.0053 47.708 27.0759 52.9477C26.8794 53.1104 26.6457 53.2449 26.3697 53.3484L26.5452 53.8166L26.3697 53.3484C26.0958 53.4511 25.8291 53.5 25.5669 53.5Z" stroke="#2D3FE3"/>
</g>
<path d="M17.8619 18.8465C17.5325 18.8465 17.2564 18.7421 17.0335 18.5332C16.8107 18.3243 16.6993 18.0654 16.6993 17.7566C16.6993 17.4478 16.8107 17.1889 17.0335 16.98C17.2564 16.7711 17.5325 16.6667 17.8619 16.6667H34.138C34.4674 16.6667 34.7435 16.7711 34.9663 16.98C35.1891 17.1889 35.3006 17.4478 35.3006 17.7566C35.3006 18.0654 35.1891 18.3243 34.9663 18.5332C34.7435 18.7421 34.4674 18.8465 34.138 18.8465H17.8619ZM17.8619 34.1054C17.5325 34.1054 17.2564 34.0009 17.0335 33.792C16.8107 33.5831 16.6993 33.3243 16.6993 33.0155V27.5659H16.4958C16.1277 27.5659 15.8273 27.4342 15.5948 27.1708C15.3623 26.9074 15.2848 26.6031 15.3623 26.258L16.5249 20.8084C16.583 20.5541 16.7187 20.3452 16.9318 20.1817C17.1449 20.0182 17.3871 19.9364 17.6584 19.9364H34.3414C34.6127 19.9364 34.8549 20.0182 35.068 20.1817C35.2812 20.3452 35.4168 20.5541 35.4749 20.8084L36.6375 26.258C36.715 26.6031 36.6375 26.9074 36.405 27.1708C36.1725 27.4342 35.8722 27.5659 35.504 27.5659H35.3006V33.0155C35.3006 33.3243 35.1891 33.5831 34.9663 33.792C34.7435 34.0009 34.4674 34.1054 34.138 34.1054C33.8086 34.1054 33.5325 34.0009 33.3096 33.792C33.0868 33.5831 32.9754 33.3243 32.9754 33.0155V27.5659H28.3251V33.0155C28.3251 33.3243 28.2137 33.5831 27.9908 33.792C27.768 34.0009 27.4919 34.1054 27.1625 34.1054H17.8619ZM19.0244 31.9255H25.9999V27.5659H19.0244V31.9255Z" fill="white"/>
<defs>
<filter id="filter0_dd_183_16296" x="0" y="0" width="51.1338" height="60" filterUnits="userSpaceOnUse" color-interpolation-filters="sRGB">
<feFlood flood-opacity="0" result="BackgroundImageFix"/>
<feColorMatrix in="SourceAlpha" type="matrix" values="0 0 0 0 0 0 0 0 0 0 0 0 0 0 0 0 0 0 127 0" result="hardAlpha"/>
<feOffset/>
<feGaussianBlur stdDeviation="1"/>
<feComposite in2="hardAlpha" operator="out"/>
<feColorMatrix type="matrix" values="0 0 0 0 0 0 0 0 0 0 0 0 0 0 0 0 0 0 0.25 0"/>
<feBlend mode="normal" in2="BackgroundImageFix" result="effect1_dropShadow_183_16296"/>
<feColorMatrix in="SourceAlpha" type="matrix" values="0 0 0 0 0 0 0 0 0 0 0 0 0 0 0 0 0 0 127 0" result="hardAlpha"/>
<feOffset/>
<feGaussianBlur stdDeviation="3"/>
<feComposite in2="hardAlpha" operator="out"/>
<feColorMatrix type="matrix" values="0 0 0 0 0.459375 0 0 0 0 0.497394 0 0 0 0 0.5625 0 0 0 0.3 0"/>
<feBlend mode="normal" in2="effect1_dropShadow_183_16296" result="effect2_dropShadow_183_16296"/>
<feBlend mode="normal" in="SourceGraphic" in2="effect2_dropShadow_183_16296" result="shape"/>
</filter>
</defs>
</svg>
