<svg width="44" height="48" viewBox="0 0 44 48" fill="none" xmlns="http://www.w3.org/2000/svg">
<g filter="url(#filter0_dd_163_15435)">
<path fill-rule="evenodd" clip-rule="evenodd" d="M26.3424 36.4037C33.0689 34.5113 38 28.3315 38 21C38 12.1634 30.8366 5 22 5C13.1634 5 6 12.1634 6 21C6 28.3315 10.9311 34.5113 17.6576 36.4037L21.2731 40.2306C21.6677 40.6483 22.3323 40.6483 22.7269 40.2306L26.3424 36.4037Z" fill="white"/>
</g>
<circle cx="22" cy="21" r="14" fill="#0E5EE6"/>
<path d="M16.4052 16.082C16.1787 16.082 15.9889 16.0102 15.8357 15.8666C15.6825 15.723 15.6059 15.545 15.6059 15.3327C15.6059 15.1204 15.6825 14.9424 15.8357 14.7988C15.9889 14.6552 16.1787 14.5834 16.4052 14.5834H27.595C27.8215 14.5834 28.0113 14.6552 28.1645 14.7988C28.3177 14.9424 28.3943 15.1204 28.3943 15.3327C28.3943 15.545 28.3177 15.723 28.1645 15.8666C28.0113 16.0102 27.8215 16.082 27.595 16.082H16.4052ZM16.4052 26.5725C16.1787 26.5725 15.9889 26.5007 15.8357 26.357C15.6825 26.2134 15.6059 26.0355 15.6059 25.8232V22.0766H15.466C15.2129 22.0766 15.0064 21.986 14.8466 21.8049C14.6867 21.6238 14.6334 21.4147 14.6867 21.1774L15.486 17.4308C15.526 17.2559 15.6192 17.1123 15.7657 16.9999C15.9123 16.8875 16.0788 16.8313 16.2653 16.8313H27.7349C27.9214 16.8313 28.0879 16.8875 28.2344 16.9999C28.3809 17.1123 28.4742 17.2559 28.5142 17.4308L29.3134 21.1774C29.3667 21.4147 29.3134 21.6238 29.1536 21.8049C28.9937 21.986 28.7872 22.0766 28.5341 22.0766H28.3943V25.8232C28.3943 26.0355 28.3177 26.2134 28.1645 26.357C28.0113 26.5007 27.8215 26.5725 27.595 26.5725C27.3685 26.5725 27.1787 26.5007 27.0255 26.357C26.8723 26.2134 26.7957 26.0355 26.7957 25.8232V22.0766H23.5986V25.8232C23.5986 26.0355 23.522 26.2134 23.3688 26.357C23.2156 26.5007 23.0258 26.5725 22.7994 26.5725H16.4052ZM17.2044 25.0738H22.0001V22.0766H17.2044V25.0738Z" fill="white"/>
<defs>
<filter id="filter0_dd_163_15435" x="0" y="0" width="44" height="47.5438" filterUnits="userSpaceOnUse" color-interpolation-filters="sRGB">
<feFlood flood-opacity="0" result="BackgroundImageFix"/>
<feColorMatrix in="SourceAlpha" type="matrix" values="0 0 0 0 0 0 0 0 0 0 0 0 0 0 0 0 0 0 127 0" result="hardAlpha"/>
<feOffset dy="2"/>
<feGaussianBlur stdDeviation="1"/>
<feComposite in2="hardAlpha" operator="out"/>
<feColorMatrix type="matrix" values="0 0 0 0 0 0 0 0 0 0 0 0 0 0 0 0 0 0 0.2 0"/>
<feBlend mode="normal" in2="BackgroundImageFix" result="effect1_dropShadow_163_15435"/>
<feColorMatrix in="SourceAlpha" type="matrix" values="0 0 0 0 0 0 0 0 0 0 0 0 0 0 0 0 0 0 127 0" result="hardAlpha"/>
<feOffset dy="1"/>
<feGaussianBlur stdDeviation="3"/>
<feComposite in2="hardAlpha" operator="out"/>
<feColorMatrix type="matrix" values="0 0 0 0 0.525 0 0 0 0 0.525 0 0 0 0 0.525 0 0 0 0.4 0"/>
<feBlend mode="normal" in2="effect1_dropShadow_163_15435" result="effect2_dropShadow_163_15435"/>
<feBlend mode="normal" in="SourceGraphic" in2="effect2_dropShadow_163_15435" result="shape"/>
</filter>
</defs>
</svg>
