<svg xmlns="http://www.w3.org/2000/svg" width="24" height="24" viewBox="0 0 24 24" fill="none">
  <path d="M18.8748 5.83332H16.679C16.3401 4.18545 14.8905 3.00213 13.2081 3H11.7915C10.1091 3.00213 8.65952 4.18545 8.32065 5.83332H6.12483C5.73363 5.83332 5.4165 6.15045 5.4165 6.54164C5.4165 6.93284 5.73363 7.25 6.12483 7.25H6.83315V16.4583C6.83551 18.4134 8.41979 19.9977 10.3748 20H14.6248C16.5799 19.9977 18.1641 18.4134 18.1665 16.4583V7.25H18.8748C19.266 7.25 19.5831 6.93288 19.5831 6.54168C19.5831 6.15048 19.266 5.83332 18.8748 5.83332ZM11.7915 15.0417C11.7915 15.4329 11.4744 15.75 11.0832 15.75C10.6919 15.75 10.3748 15.4329 10.3748 15.0417V10.7917C10.3748 10.4005 10.6919 10.0834 11.0831 10.0834C11.4743 10.0834 11.7915 10.4005 11.7915 10.7917V15.0417H11.7915ZM14.6248 15.0417C14.6248 15.4329 14.3077 15.75 13.9165 15.75C13.5253 15.75 13.2082 15.4329 13.2082 15.0417V10.7917C13.2082 10.4005 13.5253 10.0834 13.9165 10.0834C14.3077 10.0834 14.6248 10.4005 14.6248 10.7917V15.0417ZM9.78763 5.83332C10.0889 4.98495 10.8912 4.41774 11.7915 4.41664H13.2082C14.1085 4.41774 14.9108 4.98495 15.2121 5.83332H9.78763Z" fill="#DCDCDF"/>
</svg>