<svg xmlns="http://www.w3.org/2000/svg" width="15" height="17" viewBox="0 0 15 17" fill="none">
  <path d="M13.8748 2.83332H11.679C11.3401 1.18545 9.89052 0.002125 8.20815 0H6.79147C5.1091 0.002125 3.65952 1.18545 3.32065 2.83332H1.12483C0.733627 2.83332 0.416504 3.15045 0.416504 3.54164C0.416504 3.93284 0.733627 4.25 1.12483 4.25H1.83315V13.4583C1.83551 15.4134 3.41979 16.9977 5.37483 17H9.62483C11.5799 16.9977 13.1641 15.4134 13.1665 13.4583V4.25H13.8748C14.266 4.25 14.5831 3.93288 14.5831 3.54168C14.5831 3.15048 14.266 2.83332 13.8748 2.83332ZM6.7915 12.0417C6.7915 12.4329 6.47438 12.75 6.08318 12.75C5.69195 12.75 5.37483 12.4329 5.37483 12.0417V7.79168C5.37483 7.40048 5.69195 7.08336 6.08315 7.08336C6.47435 7.08336 6.79147 7.40048 6.79147 7.79168V12.0417H6.7915ZM9.62483 12.0417C9.62483 12.4329 9.3077 12.75 8.9165 12.75C8.5253 12.75 8.20818 12.4329 8.20818 12.0417V7.79168C8.20818 7.40048 8.5253 7.08336 8.9165 7.08336C9.3077 7.08336 9.62483 7.40048 9.62483 7.79168V12.0417ZM4.78763 2.83332C5.08891 1.98495 5.89123 1.41774 6.7915 1.41664H8.20818C9.10845 1.41774 9.91077 1.98495 10.2121 2.83332H4.78763Z" fill="#BCBCC1"/>
</svg>